<?xml version="1.0" encoding="UTF-8"?>
<svg version="1.1" xmlns="http://www.w3.org/2000/svg" width="420" height="111">
<path d="M0 0 C138.6 0 277.2 0 420 0 C420 36.63 420 73.26 420 111 C281.4 111 142.8 111 0 111 C0 74.37 0 37.74 0 0 Z " fill="#FEFDFD" transform="translate(0,0)"/>
<path d="M0 0 C26.73 0 53.46 0 81 0 C81 9.9 81 19.8 81 30 C54.27 30 27.54 30 0 30 C0 20.1 0 10.2 0 0 Z " fill="#FFD24F" transform="translate(311,53)"/>
<path d="M0 0 C2.79206416 0.96050118 4.64841637 1.9383268 6.9921875 3.71484375 C11.9772541 7.38011208 17.05723859 10.87107514 22.1796875 14.33984375 C28.78813418 18.83206252 35.24931929 23.44731281 41.5546875 28.35546875 C43.79596611 30.12566626 43.79596611 30.12566626 46.8046875 30.96484375 C46.8046875 31.62484375 46.8046875 32.28484375 46.8046875 32.96484375 C15.4546875 32.96484375 -15.8953125 32.96484375 -48.1953125 32.96484375 C-48.1953125 32.30484375 -48.1953125 31.64484375 -48.1953125 30.96484375 C-46.16796875 29.44140625 -46.16796875 29.44140625 -43.2578125 27.58984375 C-38.06985711 24.21858719 -32.98841265 20.73635766 -27.9453125 17.15234375 C-26.87458496 16.39812134 -26.87458496 16.39812134 -25.78222656 15.62866211 C-22.08366465 13.0233832 -18.40817876 10.3926246 -14.76171875 7.71484375 C-13.34395406 6.69372703 -11.92599275 5.67288323 -10.5078125 4.65234375 C-9.86102539 4.16596436 -9.21423828 3.67958496 -8.54785156 3.1784668 C-5.55943132 1.05142855 -3.71534643 -0.04087789 0 0 Z " fill="#FFD352" transform="translate(352.1953125,17.03515625)"/>
<path d="M0 0 C2.68194052 2.47563741 3.8930354 3.90361283 4.25 7.5625 C4.1675 8.366875 4.085 9.17125 4 10 C4 11.32 4 12.64 4 14 C4.495 14.433125 4.99 14.86625 5.5 15.3125 C7 17 7 17 7.5625 20.1875 C6.79857627 25.36520525 4.6139963 28.30273189 1 32 C-3.95138569 35.60100777 -9.08173165 35.55350711 -15 35 C-15.66 34.67 -16.32 34.34 -17 34 C-19.11733275 23.95012485 -17.94638026 14.40798961 -14 5 C-10.29997806 -0.40842714 -6.43592167 -2.3072172 0 0 Z " fill="#6F6F6F" transform="translate(150,36)"/>
<path d="M0 0 C1.32 0.33 2.64 0.66 4 1 C4.41330902 6.12347215 3.09525987 9.53377018 0.6875 13.9375 C-4.39922792 23.47364811 -4.39922792 23.47364811 -7 33.875 C-7.79253886 39.20784622 -9.14579187 43.94306874 -11 49 C-13.475 49.495 -13.475 49.495 -16 50 C-16.66 46.04 -17.32 42.08 -18 38 C-19.75098126 40.62647188 -21.38731308 43.28775382 -23 46 C-25.4375 45.375 -25.4375 45.375 -28 44 C-31.33290985 35.3344344 -26.25145615 22.1459969 -23 14 C-21.62109375 12.0625 -21.62109375 12.0625 -20 11 C-17.8125 11.3125 -17.8125 11.3125 -16 12 C-14.56663769 17.35121931 -13.59015185 22.49191603 -13 28 C-12.34 28 -11.68 28 -11 28 C-9.43294071 24.24325519 -8.17486609 20.45883326 -7 16.5625 C-3.10218734 3.66622141 -3.10218734 3.66622141 0 0 Z " fill="#707070" transform="translate(257,27)"/>
<path d="M0 0 C0.94746094 -0.01675781 1.89492187 -0.03351562 2.87109375 -0.05078125 C6.02342967 0.37471547 7.36286362 1.02670274 9.5625 3.3125 C10.91115111 7.7473282 10.14578003 11.92720992 8.375 16.1328125 C3.48955015 24.56491104 -4.04597932 31.29545464 -13.4375 34.3125 C-16.75 33.9375 -16.75 33.9375 -19.4375 33.3125 C-19.4375 32.6525 -19.4375 31.9925 -19.4375 31.3125 C-20.0975 30.9825 -20.7575 30.6525 -21.4375 30.3125 C-20.4475 30.3125 -19.4575 30.3125 -18.4375 30.3125 C-18.33953125 29.74144531 -18.2415625 29.17039062 -18.140625 28.58203125 C-16.70320855 20.78776447 -15.00011583 12.43773165 -11.4375 5.3125 C-10.7775 5.3125 -10.1175 5.3125 -9.4375 5.3125 C-9.1075 4.3225 -8.7775 3.3325 -8.4375 2.3125 C-5.11533762 0.09772508 -3.88716677 0.01582293 0 0 Z " fill="#6E6E6E" transform="translate(211.4375,36.6875)"/>
<path d="M0 0 C1.29550781 -0.03867187 1.29550781 -0.03867187 2.6171875 -0.078125 C5.67946829 0.32254725 6.98946654 1.02670489 9.125 3.25 C10.22448288 7.87429564 9.7642229 12.74202815 7.5 16.9375 C2.16682844 24.92783477 -4.19658065 32.02377489 -13.875 34.25 C-17.375 33.9375 -17.375 33.9375 -19.875 33.25 C-20.205 32.26 -20.535 31.27 -20.875 30.25 C-20.215 30.25 -19.555 30.25 -18.875 30.25 C-18.70484375 29.52296875 -18.5346875 28.7959375 -18.359375 28.046875 C-13.03342567 5.94985117 -13.03342567 5.94985117 -6.875 1.25 C-4.43545342 0.03022671 -2.72194151 0.04846187 0 0 Z " fill="#6D6D6D" transform="translate(185.875,36.75)"/>
<path d="M0 0 C0.99 0 1.98 0 3 0 C3.69921875 1.66015625 3.69921875 1.66015625 4 4 C2.70703125 6.62109375 2.70703125 6.62109375 0.8125 9.4375 C0.20019531 10.36433594 -0.41210938 11.29117188 -1.04296875 12.24609375 C-3 15 -3 15 -5.26171875 17.2421875 C-7.86970838 21.37980701 -7.12433617 24.95450641 -6.625 29.6875 C-6.46213194 31.39888699 -6.30804117 33.11113919 -6.1640625 34.82421875 C-6.08623535 35.57791748 -6.0084082 36.33161621 -5.92822266 37.1081543 C-6 39 -6 39 -8 41 C-13.875 36.375 -13.875 36.375 -15 33 C-15.66 32.67 -16.32 32.34 -17 32 C-17 32.66 -17 33.32 -17 34 C-17.98139345 35.01826661 -18.98448045 36.01576423 -20 37 C-20.81087813 38.17446542 -21.60257727 39.36239355 -22.375 40.5625 C-24.52676395 43.66260976 -26.24832145 45.03528266 -30 46 C-30.76171875 43.90625 -30.76171875 43.90625 -31 41 C-29.69301283 38.61614981 -28.43296655 36.64568689 -26.8125 34.5 C-26.21211914 33.66662109 -26.21211914 33.66662109 -25.59960938 32.81640625 C-23.75577353 30.27627584 -21.91775435 27.91634844 -19.71484375 25.67578125 C-17.19093709 21.73756698 -17.56250568 18.25587127 -17.75 13.6875 C-17.77707031 12.43356445 -17.77707031 12.43356445 -17.8046875 11.15429688 C-17.85158874 9.10236772 -17.92332589 7.05103244 -18 5 C-16.35 4.67 -14.7 4.34 -13 4 C-11.68 6.31 -10.36 8.62 -9 11 C-8.43410156 10.28972656 -7.86820313 9.57945313 -7.28515625 8.84765625 C-6.55167969 7.92855469 -5.81820312 7.00945313 -5.0625 6.0625 C-4.33160156 5.14597656 -3.60070312 4.22945312 -2.84765625 3.28515625 C-1 1 -1 1 0 0 Z " fill="#6C6C6C" transform="translate(91,31)"/>
<path d="M0 0 C3.875 0.875 3.875 0.875 5 2 C5.27352849 3.51197872 5.49104443 5.03418493 5.68359375 6.55859375 C5.80669922 7.50283203 5.92980469 8.44707031 6.05664062 9.41992188 C6.18232422 10.41572266 6.30800781 11.41152344 6.4375 12.4375 C7.26529017 18.96784471 8.19806907 25.39262628 9.65405273 31.81616211 C10.17287893 35.09132114 9.70069163 37.77681851 9 41 C7.35 40.34 5.7 39.68 4 39 C4 38.34 4 37.68 4 37 C3.41734375 36.7421875 2.8346875 36.484375 2.234375 36.21875 C-0.1802903 34.90165983 -1.81740177 33.44911616 -3.75 31.5 C-4.67039062 30.58734375 -4.67039062 30.58734375 -5.609375 29.65625 C-7 28 -7 28 -7 26 C-7.99 26 -8.98 26 -10 26 C-10.226875 26.721875 -10.45375 27.44375 -10.6875 28.1875 C-12.24831013 31.53209313 -14.3031287 33.51603959 -17 36 C-15 26 -15 26 -14.43359375 23.29296875 C-13.93806523 21.06140513 -13.93806523 21.06140513 -14 19 C-13.42507812 18.80148438 -12.85015625 18.60296875 -12.2578125 18.3984375 C-9.12787332 16.45982465 -7.67612001 13.73415774 -5.875 10.625 C-5.52824219 10.0475 -5.18148437 9.47 -4.82421875 8.875 C-3.09477885 5.97272154 -1.45674038 3.04864224 0 0 Z " fill="#6D6D6D" transform="translate(105,32)"/>
<path d="M0 0 C4.875 0.875 4.875 0.875 6 2 C7.85287502 2.07226502 9.70833878 2.0838122 11.5625 2.0625 C12.57441406 2.05347656 13.58632813 2.04445312 14.62890625 2.03515625 C15.41136719 2.02355469 16.19382812 2.01195312 17 2 C17.6875 3.75 17.6875 3.75 18 6 C16.91796875 8.234375 16.91796875 8.234375 15 10 C12.30078125 10.390625 12.30078125 10.390625 9.3125 10.25 C8.31863281 10.21390625 7.32476562 10.1778125 6.30078125 10.140625 C5.16189453 10.07101563 5.16189453 10.07101563 4 10 C3.34 11.65 2.68 13.3 2 15 C5.96 15 9.92 15 14 15 C13.67 17.31 13.34 19.62 13 22 C8.71 22 4.42 22 0 22 C-0.33 23.32 -0.66 24.64 -1 26 C-0.22914062 25.91621094 0.54171875 25.83242188 1.3359375 25.74609375 C2.33882812 25.64425781 3.34171875 25.54242188 4.375 25.4375 C5.37273438 25.33308594 6.37046875 25.22867188 7.3984375 25.12109375 C10 25 10 25 12 26 C11.125 32.875 11.125 32.875 10 34 C7.01133358 34.10011296 4.05089547 34.13873975 1.0625 34.125 C0.22525391 34.12886719 -0.61199219 34.13273437 -1.47460938 34.13671875 C-2.27576172 34.13542969 -3.07691406 34.13414063 -3.90234375 34.1328125 C-4.63960693 34.13168457 -5.37687012 34.13055664 -6.13647461 34.12939453 C-8 34 -8 34 -10 33 C-10 32.01 -10 31.02 -10 30 C-9.34 30 -8.68 30 -8 30 C-7.80664062 28.87722656 -7.61328125 27.75445312 -7.4140625 26.59765625 C-6.62810503 22.0616891 -5.81994637 17.52993745 -5 13 C-4.82210937 12.01257812 -4.64421875 11.02515625 -4.4609375 10.0078125 C-3.66732798 6.01286288 -2.85961696 2.98959955 0 0 Z " fill="#6F6F6F" transform="translate(49,37)"/>
<path d="M0 0 C1.21236328 0.01353516 1.21236328 0.01353516 2.44921875 0.02734375 C3.37154297 0.04474609 3.37154297 0.04474609 4.3125 0.0625 C4.6425 1.3825 4.9725 2.7025 5.3125 4.0625 C1.84161668 6.11669625 -1.350356 7.93377229 -5.125 9.375 C-10.51605913 11.92865959 -14.50043544 15.87543544 -18.6875 20.0625 C-18.85431109 23.14597826 -18.85431109 23.14597826 -18.6875 26.0625 C-16.0475 26.3925 -13.4075 26.7225 -10.6875 27.0625 C-10.254375 25.94875 -10.254375 25.94875 -9.8125 24.8125 C-8.86447356 22.49510203 -7.83904089 20.28332885 -6.6875 18.0625 C-8.6675 18.3925 -10.6475 18.7225 -12.6875 19.0625 C-12.6875 18.4025 -12.6875 17.7425 -12.6875 17.0625 C-12.0275 17.0625 -11.3675 17.0625 -10.6875 17.0625 C-10.3575 16.0725 -10.0275 15.0825 -9.6875 14.0625 C-6.44265269 11.77908893 -3.56290045 11.88634543 0.3125 12.0625 C1.17656958 14.49510352 1.42398146 15.72374417 0.60546875 18.2109375 C0.24066406 18.94570313 -0.12414062 19.68046875 -0.5 20.4375 C-1.78174858 23.11551765 -2.86983087 25.60949262 -3.8125 28.4375 C-4.6875 31.0625 -4.6875 31.0625 -6.6875 34.0625 C-9.10676039 34.00231939 -11.51998672 33.91527783 -13.9375 33.8125 C-14.61941406 33.79832031 -15.30132812 33.78414062 -16.00390625 33.76953125 C-19.34853857 33.60717046 -21.40165457 33.26512461 -24.15625 31.3125 C-25.93513685 28.69862545 -26.12108571 27.43345706 -25.9375 24.3125 C-25.90140625 23.51328125 -25.8653125 22.7140625 -25.828125 21.890625 C-25.78171875 21.28734375 -25.7353125 20.6840625 -25.6875 20.0625 C-25.0275 20.0625 -24.3675 20.0625 -23.6875 20.0625 C-23.460625 19.19625 -23.23375 18.33 -23 17.4375 C-20.12085015 10.03397181 -14.11615585 5.43254134 -7.6875 1.0625 C-4.80538698 0.10179566 -2.98899956 -0.04331883 0 0 Z " fill="#6F6F6F" transform="translate(278.6875,36.9375)"/>
<path d="M0 0 C0.33 0 0.66 0 1 0 C1.27378061 6.17761383 0.38449972 11.11740036 -1.4375 17 C-3.17150852 22.6925994 -4.41355221 28.06811429 -5 34 C-6.65 34.66 -8.3 35.32 -10 36 C-12.45946923 30.74567937 -13.90301833 25.69139902 -15 20 C-15.19335938 20.75925781 -15.38671875 21.51851562 -15.5859375 22.30078125 C-15.84632812 23.29464844 -16.10671875 24.28851563 -16.375 25.3125 C-16.63023438 26.29863281 -16.88546875 27.28476562 -17.1484375 28.30078125 C-18 31 -18 31 -20 34 C-21.65 33.67 -23.3 33.34 -25 33 C-24.51564881 25.56559364 -22.59434231 19.37098658 -19.9375 12.4375 C-19.37192383 10.92446289 -19.37192383 10.92446289 -18.79492188 9.38085938 C-17.87241929 6.91696007 -16.9406749 4.45700576 -16 2 C-11.15625 4.7109375 -11.15625 4.7109375 -9.75 7.3125 C-8.94554228 10.19514018 -8.41343153 13.03707401 -8 16 C-5.21706547 13.21706547 -4.85733454 10.25379511 -3.87890625 6.5078125 C-2.95273903 3.8651487 -1.83379848 2.10275559 0 0 Z " fill="#6F6F6F" transform="translate(41,36)"/>
<path d="M0 0 C27.39 0 54.78 0 83 0 C83 1.32 83 2.64 83 4 C55.61 4 28.22 4 0 4 C0 2.68 0 1.36 0 0 Z " fill="#FFD763" transform="translate(310,85)"/>
<path d="M0 0 C0.598125 0.226875 1.19625 0.45375 1.8125 0.6875 C2.30078125 2.67317708 2.7890625 4.65885417 3.27734375 6.64453125 C3.72260705 8.34433202 4.25683985 10.02051954 4.8125 11.6875 C4.94031786 14.36144964 4.85641871 17.00845857 4.8125 19.6875 C2.8325 20.3475 0.8525 21.0075 -1.1875 21.6875 C-1.30867187 22.37457031 -1.42984375 23.06164062 -1.5546875 23.76953125 C-1.80605469 25.12111328 -1.80605469 25.12111328 -2.0625 26.5 C-2.30613281 27.83998047 -2.30613281 27.83998047 -2.5546875 29.20703125 C-3.1875 31.6875 -3.1875 31.6875 -5.1875 34.6875 C-7.625 34.0625 -7.625 34.0625 -10.1875 32.6875 C-13.52040985 24.0219344 -8.43895615 10.8334969 -5.1875 2.6875 C-2.97259804 -0.42465686 -2.97259804 -0.42465686 0 0 Z " fill="#6A6A6A" transform="translate(239.1875,38.3125)"/>
<path d="M0 0 C1.16049215 5.52649004 0.71402291 8.92188684 -1.25 14.1875 C-1.72529633 15.49857757 -2.19660575 16.81110686 -2.6640625 18.125 C-2.89512695 18.77339844 -3.12619141 19.42179687 -3.36425781 20.08984375 C-4.60705206 23.82395365 -5.40759981 27.66684847 -6.2265625 31.51171875 C-7.06927145 34.22285816 -8.07940163 35.91853933 -10 38 C-10.66 38 -11.32 38 -12 38 C-12.19687041 32.16607341 -11.58163449 27.19854019 -10.125 21.5625 C-9.75324937 20.07047601 -9.38214921 18.5782898 -9.01171875 17.0859375 C-8.74560791 16.02777832 -8.74560791 16.02777832 -8.47412109 14.94824219 C-7.88841612 12.54148335 -7.41001198 10.11871547 -6.9375 7.6875 C-4.98305085 0 -4.98305085 0 0 0 Z " fill="#6E6E6E" transform="translate(170,34)"/>
<path d="M0 0 C0.99 0 1.98 0 3 0 C4.87419524 7.06427437 2.83653591 12.32013721 0.40234375 19.015625 C-1.42086829 24.04090734 -2.69802305 29.185985 -4.0078125 34.3671875 C-4.33523437 35.23601562 -4.66265625 36.10484375 -5 37 C-6.485 37.495 -6.485 37.495 -8 38 C-9.14163331 31.08792925 -8.68450438 26.11041706 -6.6875 19.4375 C-6.23271101 17.83213373 -5.77828032 16.22666591 -5.32421875 14.62109375 C-5.09911621 13.8513623 -4.87401367 13.08163086 -4.64208984 12.28857422 C-4.01369166 10.04880063 -3.47906493 7.80173342 -2.95703125 5.53515625 C-2 2 -2 2 0 0 Z " fill="#6C6C6C" transform="translate(228,34)"/>
<path d="M0 0 C0.99 0 1.98 0 3 0 C3 0.99 3 1.98 3 3 C4.32 3.66 5.64 4.32 7 5 C6.67 5.99 6.34 6.98 6 8 C5.01 7.67 4.02 7.34 3 7 C3 7.99 3 8.98 3 10 C3.639375 10.226875 4.27875 10.45375 4.9375 10.6875 C7 12 7 12 7.75 14.625 C7.87375 15.800625 7.87375 15.800625 8 17 C4.25 20 4.25 20 2 20 C1.67 20.66 1.34 21.32 1 22 C1 21.34 1 20.68 1 20 C-0.98 19.34 -2.96 18.68 -5 18 C-4.505 16.515 -4.505 16.515 -4 15 C-2.02 15.495 -2.02 15.495 0 16 C0 15.01 0 14.02 0 13 C-2.475 12.01 -2.475 12.01 -5 11 C-5.36625971 6.48279689 -5.36625971 6.48279689 -3.625 4.1875 C-2 3 -2 3 0 3 C0 2.01 0 1.02 0 0 Z " fill="#FFF8E7" transform="translate(350,24)"/>
<path d="M0 0 C0.33 0 0.66 0 1 0 C1.12375 0.969375 1.2475 1.93875 1.375 2.9375 C1.58125 3.948125 1.7875 4.95875 2 6 C2.66 6.33 3.32 6.66 4 7 C4.45576139 13.68450042 2.77620033 19.58835004 1 26 C0.78730469 26.76828125 0.57460938 27.5365625 0.35546875 28.328125 C-0.08538511 29.88855736 -0.54055082 31.44494124 -1 33 C-3.475 33.495 -3.475 33.495 -6 34 C-5.72460658 28.02396272 -4.6966121 22.66238427 -2.9375 16.9375 C-1.23416904 11.32508577 -0.70375474 6.82615686 -1 1 C-0.67 0.67 -0.34 0.34 0 0 Z " fill="#E8E8E8" transform="translate(42,34)"/>
<path d="M0 0 C4.875 0.875 4.875 0.875 6 2 C7.85287502 2.07226502 9.70833878 2.0838122 11.5625 2.0625 C12.57441406 2.05347656 13.58632813 2.04445312 14.62890625 2.03515625 C15.41136719 2.02355469 16.19382812 2.01195312 17 2 C17.6875 3.75 17.6875 3.75 18 6 C16.94921875 8.234375 16.94921875 8.234375 15 10 C12.08203125 10.390625 12.08203125 10.390625 8.8125 10.25 C7.72582031 10.21390625 6.63914062 10.1778125 5.51953125 10.140625 C4.68808594 10.09421875 3.85664062 10.0478125 3 10 C2.67 8.68 2.34 7.36 2 6 C1.34 6 0.68 6 0 6 C-0.66 7.32 -1.32 8.64 -2 10 C-2.33 10 -2.66 10 -3 10 C-3.36923077 4.58461538 -3.36923077 4.58461538 -1.5 1.625 C-1.005 1.08875 -0.51 0.5525 0 0 Z " fill="#898989" transform="translate(49,37)"/>
<path d="M0 0 C0.66 0.33 1.32 0.66 2 1 C0.60746468 4.48133831 -0.63176216 5.47886033 -4 7 C-4.33 7.66 -4.66 8.32 -5 9 C-5.66 9 -6.32 9 -7 9 C-7 9.66 -7 10.32 -7 11 C-5.02 10.67 -3.04 10.34 -1 10 C-2.19899698 13.0831351 -3.47700477 16.06279492 -5 19 C-11.15234375 19.09765625 -11.15234375 19.09765625 -13 19 C-14 18 -14 18 -14.32421875 15.23046875 C-13.9159874 11.1629106 -12.76167382 10.06923181 -9.8125 7.3125 C-9.03519531 6.56613281 -8.25789063 5.81976563 -7.45703125 5.05078125 C-5.0590991 3.04932755 -2.7914528 1.40276368 0 0 Z " fill="#F9F9F9" transform="translate(273,45)"/>
<path d="M0 0 C1.65 0.33 3.3 0.66 5 1 C5 7.93 5 14.86 5 22 C0 21 0 21 -1 20 C-1.09860131 18.59651265 -1.13078937 17.18819523 -1.1328125 15.78125 C-1.13410156 14.93175781 -1.13539063 14.08226563 -1.13671875 13.20703125 C-1.13285156 12.31371094 -1.12898438 11.42039062 -1.125 10.5 C-1.12886719 9.60667969 -1.13273437 8.71335937 -1.13671875 7.79296875 C-1.13542969 6.94347656 -1.13414062 6.09398437 -1.1328125 5.21875 C-1.13168457 4.43435547 -1.13055664 3.64996094 -1.12939453 2.84179688 C-1 1 -1 1 0 0 Z " fill="#FFF7E3" transform="translate(377,57)"/>
<path d="M0 0 C1.67542976 0.28604898 3.34385343 0.61781233 5 1 C5.05791844 4.12492251 5.09356746 7.24970766 5.125 10.375 C5.14175781 11.26445313 5.15851563 12.15390625 5.17578125 13.0703125 C5.18222656 13.92109375 5.18867188 14.771875 5.1953125 15.6484375 C5.20578613 16.43395996 5.21625977 17.21948242 5.22705078 18.02880859 C5 20 5 20 3 22 C0.875 21.625 0.875 21.625 -1 21 C-1.02888146 17.68751813 -1.04675799 14.37506833 -1.0625 11.0625 C-1.07087891 10.11697266 -1.07925781 9.17144531 -1.08789062 8.19726562 C-1.09111328 7.29814453 -1.09433594 6.39902344 -1.09765625 5.47265625 C-1.10289307 4.64000244 -1.10812988 3.80734863 -1.11352539 2.94946289 C-1 1 -1 1 0 0 Z " fill="#FFF9E8" transform="translate(334,57)"/>
<path d="M0 0 C1.65 0.33 3.3 0.66 5 1 C5 7.27 5 13.54 5 20 C3.35 20.33 1.7 20.66 0 21 C-1.55606751 19.44393249 -1.12970769 17.94042629 -1.1328125 15.78125 C-1.13410156 14.93175781 -1.13539063 14.08226563 -1.13671875 13.20703125 C-1.13285156 12.31371094 -1.12898438 11.42039062 -1.125 10.5 C-1.12886719 9.60667969 -1.13273437 8.71335937 -1.13671875 7.79296875 C-1.13542969 6.94347656 -1.13414062 6.09398437 -1.1328125 5.21875 C-1.13168457 4.43435547 -1.13055664 3.64996094 -1.12939453 2.84179688 C-1 1 -1 1 0 0 Z " fill="#FFF8E7" transform="translate(348,57)"/>
<path d="M0 0 C1.65 0.33 3.3 0.66 5 1 C5 7.27 5 13.54 5 20 C3.35 20.33 1.7 20.66 0 21 C-1.55606751 19.44393249 -1.12970769 17.94042629 -1.1328125 15.78125 C-1.13410156 14.93175781 -1.13539063 14.08226563 -1.13671875 13.20703125 C-1.13285156 12.31371094 -1.12898438 11.42039062 -1.125 10.5 C-1.12886719 9.60667969 -1.13273437 8.71335937 -1.13671875 7.79296875 C-1.13542969 6.94347656 -1.13414062 6.09398437 -1.1328125 5.21875 C-1.13168457 4.43435547 -1.13055664 3.64996094 -1.12939453 2.84179688 C-1 1 -1 1 0 0 Z " fill="#FFF9E8" transform="translate(319,57)"/>
<path d="M0 0 C3.77001757 0.40978452 5.80106814 0.86737876 9 3 C7.6145759 7.23909658 5.67287988 9.70658025 2.5 12.8125 C1.7059375 13.60269531 0.911875 14.39289062 0.09375 15.20703125 C-2 17 -2 17 -4 17 C-3.40245849 13.21557045 -2.7232801 9.44963605 -2 5.6875 C-1.835 4.82511719 -1.67 3.96273437 -1.5 3.07421875 C-1 1 -1 1 0 0 Z " fill="#F2F2F2" transform="translate(205,43)"/>
<path d="M0 0 C2.64 0 5.28 0 8 0 C8.66 1.32 9.32 2.64 10 4 C5.96476648 8.81123996 1.95532767 13.13242719 -3 17 C-2.25339288 11.27601207 -1.17122859 5.65146223 0 0 Z " fill="#F4F4F4" transform="translate(178,44)"/>
<path d="M0 0 C3.03499675 0.15432187 5.74471919 0.47409859 8.6875 1.1875 C8.5625 3.4375 8.5625 3.4375 7.6875 6.1875 C4.4828889 8.94495607 2.55456222 10.12327317 -1.6875 10.4375 C-2.55375 10.355 -3.42 10.2725 -4.3125 10.1875 C-5.2890625 4.1328125 -5.2890625 4.1328125 -5.3125 2.1875 C-3.3125 0.1875 -3.3125 0.1875 0 0 Z " fill="#F0F0F0" transform="translate(142.3125,54.8125)"/>
<path d="M0 0 C0.88294913 2.46443397 1.11277626 3.66820037 0.2578125 6.18359375 C-0.11601562 6.92738281 -0.48984375 7.67117187 -0.875 8.4375 C-2.40437956 11.6333759 -3.54209492 14.45123565 -4 18 C-4.33 18 -4.66 18 -5 18 C-5.33 16.02 -5.66 14.04 -6 12 C-7.32 12.33 -8.64 12.66 -10 13 C-8.125 8.25 -8.125 8.25 -7 6 C-8.98 6.33 -10.96 6.66 -13 7 C-13 6.34 -13 5.68 -13 5 C-12.34 5 -11.68 5 -11 5 C-10.67 4.01 -10.34 3.02 -10 2 C-6.75515269 -0.28341107 -3.87540045 -0.17615457 0 0 Z " fill="#767676" transform="translate(279,49)"/>
<path d="M0 0 C1.32 0 2.64 0 4 0 C4 6.93 4 13.86 4 21 C2.68 21.33 1.36 21.66 0 22 C-1.58937556 20.41062444 -1.12981143 18.76100154 -1.1328125 16.5625 C-1.13410156 15.66789062 -1.13539063 14.77328125 -1.13671875 13.8515625 C-1.13091797 12.44003906 -1.13091797 12.44003906 -1.125 11 C-1.12886719 10.05898437 -1.13273437 9.11796875 -1.13671875 8.1484375 C-1.13542969 7.25382812 -1.13414062 6.35921875 -1.1328125 5.4375 C-1.13112061 4.19806641 -1.13112061 4.19806641 -1.12939453 2.93359375 C-1 1 -1 1 0 0 Z " fill="#FFFCF5" transform="translate(363,57)"/>
<path d="M0 0 C1.125 3.75 1.125 3.75 0 6 C1.32 6.33 2.64 6.66 4 7 C3.66009167 12.37992836 3.31442207 16.53273547 0 21 C-1.65 20.67 -3.3 20.34 -5 20 C-4.52432875 12.74601342 -2.70533406 6.73187777 0 0 Z " fill="#7F7F7F" transform="translate(21,49)"/>
<path d="M0 0 C0.99 0.33 1.98 0.66 3 1 C3.25 7.625 3.25 7.625 1 11 C-3.29 10.67 -7.58 10.34 -12 10 C-12 7 -12 7 -11 5 C-8.36 5 -5.72 5 -3 5 C-3 4.01 -3 3.02 -3 2 C-2.01 1.34 -1.02 0.68 0 0 Z " fill="#686868" transform="translate(271,60)"/>
<path d="M0 0 C0.33 0 0.66 0 1 0 C2.15429316 4.85979477 1.71267265 7.96108157 0.1875 12.6875 C-1.67618623 18.75576553 -3.02773976 24.73148005 -4 31 C-4.66 30.34 -5.32 29.68 -6 29 C-6.66 30.32 -7.32 31.64 -8 33 C-9.41581881 30.16836237 -8.53964942 28.8038467 -7.63671875 25.80078125 C-7.32669922 24.75599609 -7.01667969 23.71121094 -6.69726562 22.63476562 C-6.36404297 21.53841797 -6.03082031 20.44207031 -5.6875 19.3125 C-5.04554001 17.16277024 -4.40361212 15.0130309 -3.76171875 12.86328125 C-3.30418213 11.34468506 -3.30418213 11.34468506 -2.83740234 9.79541016 C-1.86167089 6.5382308 -0.92233291 3.27264316 0 0 Z " fill="#E8E8E8" transform="translate(232,37)"/>
<path d="M0 0 C0.33 0 0.66 0 1 0 C1.62599202 7.82490023 -0.67485871 14.60937233 -3 22 C-3.433125 21.525625 -3.86625 21.05125 -4.3125 20.5625 C-6.02309613 18.76313043 -6.02309613 18.76313043 -9 18 C-8 16 -8 16 -6 14 C-5.17707384 11.526913 -4.53747682 9.02919698 -3.87890625 6.5078125 C-2.95273903 3.8651487 -1.83379848 2.10275559 0 0 Z " fill="#898989" transform="translate(41,36)"/>
<path d="M0 0 C0.87840996 3.09720845 0.99435406 4.90645403 0 8 C0.804375 8.20625 1.60875 8.4125 2.4375 8.625 C5 10 5 10 5.9375 12.9375 C6 16 6 16 4 19 C1.5625 18.375 1.5625 18.375 -1 17 C-3.11281629 11.50667765 -1.19789389 5.56377164 0 0 Z " fill="#7F7F7F" transform="translate(230,54)"/>
<path d="M0 0 C0.33 0.99 0.66 1.98 1 3 C2.65 2.67 4.3 2.34 6 2 C6.33 3.32 6.66 4.64 7 6 C9.64 6.33 12.28 6.66 15 7 C15 7.33 15 7.66 15 8 C12.36 8 9.72 8 7 8 C6.67 9.65 6.34 11.3 6 13 C4.125 12.6875 4.125 12.6875 2 12 C-0.13586678 8.79619983 -0.23132175 7.98060033 -0.125 4.3125 C-0.10695312 3.50425781 -0.08890625 2.69601563 -0.0703125 1.86328125 C-0.04710937 1.24839844 -0.02390625 0.63351563 0 0 Z " fill="#767676" transform="translate(253,57)"/>
<path d="M0 0 C-0.875 4.875 -0.875 4.875 -2 6 C-4.33297433 6.04092937 -6.66705225 6.04241723 -9 6 C-9.33 4.02 -9.66 2.04 -10 0 C-6.33694766 -0.74926071 -3.57644848 -1.2380014 0 0 Z " fill="#696969" transform="translate(67,40)"/>
<path d="M0 0 C0.99 0 1.98 0 3 0 C3 1.32 3 2.64 3 4 C4.32 4 5.64 4 7 4 C7.125 6.875 7.125 6.875 7 10 C6.34 10.66 5.68 11.32 5 12 C3.68 12 2.36 12 1 12 C0.67 8.04 0.34 4.08 0 0 Z " fill="#7C7C7C" transform="translate(240,65)"/>
<path d="M0 0 C0.99 0 1.98 0 3 0 C3.6875 1.6875 3.6875 1.6875 4 4 C2.5625 6.75 2.5625 6.75 1 9 C0.67 8.34 0.34 7.68 0 7 C-1.98 7.33 -3.96 7.66 -6 8 C-2.25 2.25 -2.25 2.25 0 0 Z " fill="#7E7E7E" transform="translate(91,31)"/>
<path d="M0 0 C3.63 0.33 7.26 0.66 11 1 C10.01 1.33 9.02 1.66 8 2 C8 2.99 8 3.98 8 5 C5.03 5 2.06 5 -1 5 C-0.67 3.35 -0.34 1.7 0 0 Z " fill="#E1E1E1" transform="translate(49,58)"/>
<path d="M0 0 C0.66 0.33 1.32 0.66 2 1 C1.4375 2.8125 1.4375 2.8125 0 5 C-1.71717357 5.74518853 -3.43741001 6.4857429 -5.18359375 7.16015625 C-8.15771385 8.53528705 -9.96111846 10.48138162 -12 13 C-12.87238858 15.67790896 -12.87238858 15.67790896 -13 18 C-13.33 18 -13.66 18 -14 18 C-14.35422514 14.33614888 -14.4203125 12.57415238 -12.20703125 9.55078125 C-11.41683594 8.81214844 -10.62664062 8.07351562 -9.8125 7.3125 C-9.03519531 6.56613281 -8.25789063 5.81976563 -7.45703125 5.05078125 C-5.0590991 3.04932755 -2.7914528 1.40276368 0 0 Z " fill="#E3E3E3" transform="translate(273,45)"/>
<path d="M0 0 C0.66 0 1.32 0 2 0 C2.50559908 1.43554025 3.0042749 2.8735202 3.5 4.3125 C3.7784375 5.11300781 4.056875 5.91351563 4.34375 6.73828125 C5 9 5 9 5 12 C4.01 12 3.02 12 2 12 C1.67 12.66 1.34 13.32 1 14 C0.34 11.69 -0.32 9.38 -1 7 C-0.34 7 0.32 7 1 7 C0.67 4.69 0.34 2.38 0 0 Z " fill="#7B7B7B" transform="translate(26,47)"/>
<path d="M0 0 C1.9451 2.91765 2.45276317 4.62537285 3 8 C3.598125 7.67 4.19625 7.34 4.8125 7 C7 6 7 6 10 6 C10 6.66 10 7.32 10 8 C6.62902617 9.49821059 4.79557881 10 1 10 C0.566875 8.2984375 0.566875 8.2984375 0.125 6.5625 C-0.24625 5.386875 -0.6175 4.21125 -1 3 C-1.66 2.67 -2.32 2.34 -3 2 C-2.01 1.34 -1.02 0.68 0 0 Z " fill="#FFD868" transform="translate(332,29)"/>
<path d="M0 0 C-0.33 1.98 -0.66 3.96 -1 6 C-4.75 7.125 -4.75 7.125 -7 6 C-7 4.35 -7 2.7 -7 1 C-4.50935112 0.31292445 -2.62113708 0 0 0 Z " fill="#6F6F6F" transform="translate(23,63)"/>
<path d="M0 0 C2.5654594 2.5654594 2.54046087 4.47686668 3 8 C2.34 8 1.68 8 1 8 C1 8.66 1 9.32 1 10 C-0.32 9.67 -1.64 9.34 -3 9 C-2.4140625 2.84765625 -2.4140625 2.84765625 -2 1 C-1.34 0.67 -0.68 0.34 0 0 Z " fill="#6B6B6B" transform="translate(24,46)"/>
<path d="M0 0 C0 3.3 0 6.6 0 10 C-2.5 8.8125 -2.5 8.8125 -5 7 C-5.5 4.4375 -5.5 4.4375 -5 2 C-2 0 -2 0 0 0 Z " fill="#D0D0D0" transform="translate(105,47)"/>
<path d="M0 0 C1.65 0 3.3 0 5 0 C5.33 2.64 5.66 5.28 6 8 C3.5625 7.375 3.5625 7.375 1 6 C0.1875 2.875 0.1875 2.875 0 0 Z " fill="#767676" transform="translate(228,65)"/>
<path d="M0 0 C1.51553092 3.97450493 0.49888623 7.20481149 -0.4375 11.25 C-0.72496094 12.51328125 -1.01242188 13.7765625 -1.30859375 15.078125 C-1.53675781 16.04234375 -1.76492187 17.0065625 -2 18 C-2.33 18 -2.66 18 -3 18 C-3.33 16.35 -3.66 14.7 -4 13 C-4.99 13.495 -4.99 13.495 -6 14 C-5.55123384 12.35153231 -5.09069512 10.70626545 -4.625 9.0625 C-4.36976563 8.14597656 -4.11453125 7.22945312 -3.8515625 6.28515625 C-3 4 -3 4 -1 3 C-0.67 2.01 -0.34 1.02 0 0 Z " fill="#D2D2D2" transform="translate(160,51)"/>
<path d="M0 0 C0.99 0 1.98 0 3 0 C3 0.99 3 1.98 3 3 C3.66 3.33 4.32 3.66 5 4 C3.02 4.99 3.02 4.99 1 6 C1 6.99 1 7.98 1 9 C0.01 9 -0.98 9 -2 9 C-2 8.01 -2 7.02 -2 6 C-2.66 5.67 -3.32 5.34 -4 5 C-2.68 4.34 -1.36 3.68 0 3 C0 2.01 0 1.02 0 0 Z " fill="#FFEEBF" transform="translate(350,24)"/>
<path d="M0 0 C0.98914557 3.42564385 0.71468446 5.51591324 0 9 C0.33 9.99 0.66 10.98 1 12 C0.34 12.66 -0.32 13.32 -1 14 C-1.33 13.34 -1.66 12.68 -2 12 C-2.99 13.32 -3.98 14.64 -5 16 C-4.39363767 10.23955788 -2.24341721 5.27985631 0 0 Z " fill="#C7C7C7" transform="translate(255,43)"/>
<path d="M0 0 C0.66 0 1.32 0 2 0 C1.67 1.65 1.34 3.3 1 5 C-0.65 5.33 -2.3 5.66 -4 6 C-4.33 7.32 -4.66 8.64 -5 10 C-5.66 10 -6.32 10 -7 10 C-7.1875 7.625 -7.1875 7.625 -7 5 C-4 3 -4 3 0 3 C0 2.01 0 1.02 0 0 Z " fill="#888888" transform="translate(244,55)"/>
<path d="M0 0 C0.66 0.33 1.32 0.66 2 1 C1.67 3.97 1.34 6.94 1 10 C0.01 9.01 -0.98 8.02 -2 7 C-2.99 6.67 -3.98 6.34 -5 6 C-3.74458443 3.48916886 -2.49936512 3.12874554 0 2 C0 1.34 0 0.68 0 0 Z " fill="#7E7E7E" transform="translate(37,48)"/>
<path d="M0 0 C0.33 0 0.66 0 1 0 C2.56659619 6.98942918 2.56659619 6.98942918 0.953125 9.8671875 C-0.4375 11.5 -0.4375 11.5 -3 14 C-3 9.00176812 -2.60996888 4.34994813 0 0 Z " fill="#8A8A8A" transform="translate(92,54)"/>
<path d="M0 0 C1.51953125 1.23828125 1.51953125 1.23828125 3 3 C3.10118893 5.78535848 2.49854208 8.23535757 2 11 C1.34 10.34 0.68 9.68 0 9 C-0.66 10.32 -1.32 11.64 -2 13 C-3.45047396 10.09905209 -2.45356803 8.44027404 -1.5625 5.375 C-1.27503906 4.37210938 -0.98757812 3.36921875 -0.69140625 2.3359375 C-0.46324219 1.56507812 -0.23507813 0.79421875 0 0 Z " fill="#CBCBCB" transform="translate(226,57)"/>
<path d="M0 0 C0.66 0.33 1.32 0.66 2 1 C2 3.31 2 5.62 2 8 C1.34 7.67 0.68 7.34 0 7 C0.33 6.34 0.66 5.68 1 5 C-0.98 5.33 -2.96 5.66 -5 6 C-5 5.34 -5 4.68 -5 4 C-4.34 4 -3.68 4 -3 4 C-2.67 3.01 -2.34 2.02 -2 1 C-1.34 0.67 -0.68 0.34 0 0 Z " fill="#949494" transform="translate(271,50)"/>
<path d="M0 0 C2.475 0.495 2.475 0.495 5 1 C5.66 3.31 6.32 5.62 7 8 C4.37098712 6.47793991 2.15634036 5.15634036 0 3 C0 2.01 0 1.02 0 0 Z " fill="#696969" transform="translate(49,37)"/>
<path d="M0 0 C2.125 0.9375 2.125 0.9375 4 2 C3.34 4.64 2.68 7.28 2 10 C1.67 10 1.34 10 1 10 C0.67 8.02 0.34 6.04 0 4 C-1.32 4.33 -2.64 4.66 -4 5 C-2.25 1.125 -2.25 1.125 0 0 Z " fill="#838383" transform="translate(273,57)"/>
<path d="M0 0 C1.5625 1 1.5625 1 3 3 C3.06745073 5.74861744 2.74713966 8.35411443 2 11 C1.34 11.66 0.68 12.32 0 13 C-0.66 11.68 -1.32 10.36 -2 9 C-1.67 8.67 -1.34 8.34 -1 8 C-0.76924918 6.65252916 -0.58846937 5.29622435 -0.4375 3.9375 C-0.293125 2.638125 -0.14875 1.33875 0 0 Z " fill="#C3C3C3" transform="translate(221,42)"/>
<path d="M0 0 C1.67542976 0.28604898 3.34385343 0.61781233 5 1 C5.33 2.32 5.66 3.64 6 5 C3.525 4.01 3.525 4.01 1 3 C0.67 6.3 0.34 9.6 0 13 C-0.33 13 -0.66 13 -1 13 C-1.02686553 11.02090602 -1.04633375 9.04171029 -1.0625 7.0625 C-1.07410156 5.96035156 -1.08570312 4.85820313 -1.09765625 3.72265625 C-1 1 -1 1 0 0 Z " fill="#969696" transform="translate(74,35)"/>
<path d="M0 0 C0.66 0 1.32 0 2 0 C1.67 2.64 1.34 5.28 1 8 C0.67 7.34 0.34 6.68 0 6 C-1.98 6.33 -3.96 6.66 -6 7 C-5.67 5.68 -5.34 4.36 -5 3 C-5 3.66 -5 4.32 -5 5 C-3.00016466 4.20882096 -3.00016466 4.20882096 -1 3 C-0.67 2.01 -0.34 1.02 0 0 Z " fill="#929292" transform="translate(23,57)"/>
<path d="M0 0 C0.66 0 1.32 0 2 0 C2.33 0.99 2.66 1.98 3 3 C5.31 3 7.62 3 10 3 C9.67 3.66 9.34 4.32 9 5 C6.67843403 5.40729228 4.3431213 5.74438677 2 6 C1.87625 5.360625 1.7525 4.72125 1.625 4.0625 C1.315625 3.0415625 1.315625 3.0415625 1 2 C0.34 1.67 -0.32 1.34 -1 1 C-0.67 0.67 -0.34 0.34 0 0 Z " fill="#FFD96A" transform="translate(320,37)"/>
<path d="M0 0 C0.66 0 1.32 0 2 0 C2.625 2.8125 2.625 2.8125 3 6 C2.01 7.485 2.01 7.485 1 9 C0.01 7.02 -0.98 5.04 -2 3 C-1.34 2.01 -0.68 1.02 0 0 Z " fill="#787878" transform="translate(49,43)"/>
<path d="M0 0 C1.65 0 3.3 0 5 0 C4.67 1.32 4.34 2.64 4 4 C2.35 4.33 0.7 4.66 -1 5 C-0.67 3.35 -0.34 1.7 0 0 Z " fill="#E2E2E2" transform="translate(142,43)"/>
<path d="M0 0 C0.66 0.33 1.32 0.66 2 1 C-1.72143296 4.91447559 -5.14032976 8.49653351 -10 11 C-8.55218207 7.55571735 -6.72305391 5.63869038 -3.875 3.25 C-3.15054687 2.63640625 -2.42609375 2.0228125 -1.6796875 1.390625 C-0.84824219 0.70226563 -0.84824219 0.70226563 0 0 Z " fill="#8A8A8A" transform="translate(268,40)"/>
<path d="M0 0 C0.33 0.99 0.66 1.98 1 3 C2.65 2.67 4.3 2.34 6 2 C6 2.99 6 3.98 6 5 C4.35 5 2.7 5 1 5 C0.67 6.32 0.34 7.64 0 9 C0 6.03 0 3.06 0 0 Z " fill="#8F8F8F" transform="translate(253,57)"/>
<path d="M0 0 C0.33 0 0.66 0 1 0 C2.21621622 5.35135135 2.21621622 5.35135135 1.25 8.25 C0 10 0 10 -3 12 C-2.01 8.04 -1.02 4.08 0 0 Z " fill="#DEDEDE" transform="translate(232,37)"/>
<path d="M0 0 C2.0625 0.4375 2.0625 0.4375 4 1 C3.625 3.4375 3.625 3.4375 3 6 C2.01 6.495 2.01 6.495 1 7 C0.34 5.02 -0.32 3.04 -1 1 C-0.67 0.67 -0.34 0.34 0 0 Z " fill="#8F8F8F" transform="translate(63,39)"/>
<path d="M0 0 C0.99 0.33 1.98 0.66 3 1 C3 1.99 3 2.98 3 4 C2.34 4 1.68 4 1 4 C0.67 4.66 0.34 5.32 0 6 C0 5.34 0 4.68 0 4 C-0.66 4 -1.32 4 -2 4 C-2 3.01 -2 2.02 -2 1 C-1.34 0.67 -0.68 0.34 0 0 Z " fill="#FFFCF6" transform="translate(351,40)"/>
<path d="M0 0 C0.33 1.32 0.66 2.64 1 4 C0.34 4 -0.32 4 -1 4 C-1 4.66 -1 5.32 -1 6 C-2.32 5.67 -3.64 5.34 -5 5 C-4.67 4.01 -4.34 3.02 -4 2 C-2.02 2.495 -2.02 2.495 0 3 C0 2.01 0 1.02 0 0 Z " fill="#FFF3D4" transform="translate(350,37)"/>
<path d="M0 0 C0.99 0.33 1.98 0.66 3 1 C1.47764564 4.04470873 -1.18424486 5.20270948 -4 7 C-3.34 5.35 -2.68 3.7 -2 2 C-1.34 2 -0.68 2 0 2 C0 1.34 0 0.68 0 0 Z " fill="#DCDCDC" transform="translate(74,63)"/>
</svg>
